HIERARCHY
ROOT mixamorig:Hips
{
	OFFSET -0.000008 104.274872 1.554316
	CHANNELS 6 Xposition Yposition Zposition Xrotation Yrotation Zrotation
	JOINT mixamorig:Spine
	{
		OFFSET -0.000005 10.181595 0.131519
		CHANNELS 6 Xposition Yposition Zposition Xrotation Yrotation Zrotation
		JOINT mixamorig:Spine1
		{
			OFFSET -0.000000 9.893959 -1.470707
			CHANNELS 6 Xposition Yposition Zposition Xrotation Yrotation Zrotation
			JOINT mixamorig:Spine2
			{
				OFFSET -0.000000 9.220757 -1.370641
				CHANNELS 6 Xposition Yposition Zposition Xrotation Yrotation Zrotation
				JOINT mixamorig:Neck
				{
					OFFSET 0.000001 16.740417 -2.049036
					CHANNELS 6 Xposition Yposition Zposition Xrotation Yrotation Zrotation
					JOINT mixamorig:Head
					{
						OFFSET 0.000000 9.617874 1.685006
						CHANNELS 6 Xposition Yposition Zposition Xrotation Yrotation Zrotation
						JOINT mixamorig:HeadTop_End
						{
							OFFSET 0.000002 22.037354 7.501101
							CHANNELS 6 Xposition Yposition Zposition Xrotation Yrotation Zrotation
							End Site
							{
								OFFSET 0.000168 2310.654297 -282.823242
							}
						}
					}
				}
				JOINT mixamorig:RightShoulder
				{
					OFFSET -4.569970 11.014908 -2.160885
					CHANNELS 6 Xposition Yposition Zposition Xrotation Yrotation Zrotation
					JOINT mixamorig:RightArm
					{
						OFFSET -10.592851 -0.524811 -2.232101
						CHANNELS 6 Xposition Yposition Zposition Xrotation Yrotation Zrotation
						JOINT mixamorig:RightForeArm
						{
							OFFSET -27.841511 0.000031 -0.000004
							CHANNELS 6 Xposition Yposition Zposition Xrotation Yrotation Zrotation
							JOINT mixamorig:RightHand
							{
								OFFSET -28.328831 -0.000015 0.000015
								CHANNELS 6 Xposition Yposition Zposition Xrotation Yrotation Zrotation
								JOINT mixamorig:RightHandThumb1
								{
									OFFSET -2.464806 -1.573990 2.681852
									CHANNELS 6 Xposition Yposition Zposition Xrotation Yrotation Zrotation
									JOINT mixamorig:RightHandThumb2
									{
										OFFSET -3.215179 -1.872803 1.924282
										CHANNELS 6 Xposition Yposition Zposition Xrotation Yrotation Zrotation
										JOINT mixamorig:RightHandThumb3
										{
											OFFSET -2.654831 -1.527969 1.512609
											CHANNELS 6 Xposition Yposition Zposition Xrotation Yrotation Zrotation
											JOINT mixamorig:RightHandThumb4
											{
												OFFSET -2.018814 -1.152008 1.108052
												CHANNELS 6 Xposition Yposition Zposition Xrotation Yrotation Zrotation
												End Site
												{
													OFFSET -188.809540 -114.533607 132.431396
												}
											}
										}
									}
								}
								JOINT mixamorig:RightHandIndex1
								{
									OFFSET -9.108284 -0.517868 2.259835
									CHANNELS 6 Xposition Yposition Zposition Xrotation Yrotation Zrotation
									JOINT mixamorig:RightHandIndex2
									{
										OFFSET -3.699989 0.000000 0.001215
										CHANNELS 6 Xposition Yposition Zposition Xrotation Yrotation Zrotation
										JOINT mixamorig:RightHandIndex3
										{
											OFFSET -2.850006 0.000031 -0.000522
											CHANNELS 6 Xposition Yposition Zposition Xrotation Yrotation Zrotation
											JOINT mixamorig:RightHandIndex4
											{
												OFFSET -2.772186 -0.000015 -0.000020
												CHANNELS 6 Xposition Yposition Zposition Xrotation Yrotation Zrotation
												End Site
												{
													OFFSET -277.218445 0.000000 -0.050231
												}
											}
										}
									}
								}
								JOINT mixamorig:RightHandMiddle1
								{
									OFFSET -9.532516 -0.000031 -0.000023
									CHANNELS 6 Xposition Yposition Zposition Xrotation Yrotation Zrotation
									JOINT mixamorig:RightHandMiddle2
									{
										OFFSET -3.700005 -0.000015 0.003713
										CHANNELS 6 Xposition Yposition Zposition Xrotation Yrotation Zrotation
										JOINT mixamorig:RightHandMiddle3
										{
											OFFSET -2.949974 0.000015 -0.002054
											CHANNELS 6 Xposition Yposition Zposition Xrotation Yrotation Zrotation
											JOINT mixamorig:RightHandMiddle4
											{
												OFFSET -2.946640 0.000000 -0.000156
												CHANNELS 6 Xposition Yposition Zposition Xrotation Yrotation Zrotation
												End Site
												{
													OFFSET -294.664337 0.000000 -0.113670
												}
											}
										}
									}
								}
								JOINT mixamorig:RightHandRing1
								{
									OFFSET -9.103600 -0.043076 -1.865134
									CHANNELS 6 Xposition Yposition Zposition Xrotation Yrotation Zrotation
									JOINT mixamorig:RightHandRing2
									{
										OFFSET -3.379288 0.000000 -0.001055
										CHANNELS 6 Xposition Yposition Zposition Xrotation Yrotation Zrotation
										JOINT mixamorig:RightHandRing3
										{
											OFFSET -2.889687 -0.000015 0.000379
											CHANNELS 6 Xposition Yposition Zposition Xrotation Yrotation Zrotation
											JOINT mixamorig:RightHandRing4
											{
												OFFSET -2.638809 -0.000015 0.000941
												CHANNELS 6 Xposition Yposition Zposition Xrotation Yrotation Zrotation
												End Site
												{
													OFFSET -263.880371 0.000000 0.516020
												}
											}
										}
									}
								}
								JOINT mixamorig:RightHandPinky1
								{
									OFFSET -8.076683 -0.486710 -3.806280
									CHANNELS 6 Xposition Yposition Zposition Xrotation Yrotation Zrotation
									JOINT mixamorig:RightHandPinky2
									{
										OFFSET -3.600014 -0.000015 -0.003747
										CHANNELS 6 Xposition Yposition Zposition Xrotation Yrotation Zrotation
										JOINT mixamorig:RightHandPinky3
										{
											OFFSET -2.099983 0.000000 -0.005739
											CHANNELS 6 Xposition Yposition Zposition Xrotation Yrotation Zrotation
											JOINT mixamorig:RightHandPinky4
											{
												OFFSET -2.115768 -0.000031 -0.003680
												CHANNELS 6 Xposition Yposition Zposition Xrotation Yrotation Zrotation
												End Site
												{
													OFFSET -211.577087 0.000000 -0.350686
												}
											}
										}
									}
								}
							}
						}
					}
				}
				JOINT mixamorig:LeftShoulder
				{
					OFFSET 4.570447 11.014725 -2.160855
					CHANNELS 6 Xposition Yposition Zposition Xrotation Yrotation Zrotation
					JOINT mixamorig:LeftArm
					{
						OFFSET 10.592371 -0.524597 -2.232119
						CHANNELS 6 Xposition Yposition Zposition Xrotation Yrotation Zrotation
						JOINT mixamorig:LeftForeArm
						{
							OFFSET 27.841532 -0.000031 0.000026
							CHANNELS 6 Xposition Yposition Zposition Xrotation Yrotation Zrotation
							JOINT mixamorig:LeftHand
							{
								OFFSET 28.328846 -0.000061 0.000022
								CHANNELS 6 Xposition Yposition Zposition Xrotation Yrotation Zrotation
								JOINT mixamorig:LeftHandThumb1
								{
									OFFSET 2.466141 -1.576172 2.681732
									CHANNELS 6 Xposition Yposition Zposition Xrotation Yrotation Zrotation
									JOINT mixamorig:LeftHandThumb2
									{
										OFFSET 3.217812 -1.872070 1.916482
										CHANNELS 6 Xposition Yposition Zposition Xrotation Yrotation Zrotation
										JOINT mixamorig:LeftHandThumb3
										{
											OFFSET 2.656029 -1.528778 1.514513
											CHANNELS 6 Xposition Yposition Zposition Xrotation Yrotation Zrotation
											JOINT mixamorig:LeftHandThumb4
											{
												OFFSET 2.020889 -1.154053 1.115139
												CHANNELS 6 Xposition Yposition Zposition Xrotation Yrotation Zrotation
												End Site
												{
													OFFSET 190.885437 -115.081749 130.048782
												}
											}
										}
									}
								}
								JOINT mixamorig:LeftHandIndex1
								{
									OFFSET 9.109314 -0.518021 2.259871
									CHANNELS 6 Xposition Yposition Zposition Xrotation Yrotation Zrotation
									JOINT mixamorig:LeftHandIndex2
									{
										OFFSET 3.699989 0.000000 -0.000322
										CHANNELS 6 Xposition Yposition Zposition Xrotation Yrotation Zrotation
										JOINT mixamorig:LeftHandIndex3
										{
											OFFSET 2.850006 0.000000 0.000352
											CHANNELS 6 Xposition Yposition Zposition Xrotation Yrotation Zrotation
											JOINT mixamorig:LeftHandIndex4
											{
												OFFSET 2.774864 -0.000031 -0.000027
												CHANNELS 6 Xposition Yposition Zposition Xrotation Yrotation Zrotation
												End Site
												{
													OFFSET 277.486267 0.000000 -0.009857
												}
											}
										}
									}
								}
								JOINT mixamorig:LeftHandMiddle1
								{
									OFFSET 9.533394 0.000061 0.000044
									CHANNELS 6 Xposition Yposition Zposition Xrotation Yrotation Zrotation
									JOINT mixamorig:LeftHandMiddle2
									{
										OFFSET 3.699989 -0.000015 -0.000231
										CHANNELS 6 Xposition Yposition Zposition Xrotation Yrotation Zrotation
										JOINT mixamorig:LeftHandMiddle3
										{
											OFFSET 2.949997 -0.000015 -0.000059
											CHANNELS 6 Xposition Yposition Zposition Xrotation Yrotation Zrotation
											JOINT mixamorig:LeftHandMiddle4
											{
												OFFSET 2.952896 0.000031 0.000063
												CHANNELS 6 Xposition Yposition Zposition Xrotation Yrotation Zrotation
												End Site
												{
													OFFSET 295.289337 0.000000 0.022810
												}
											}
										}
									}
								}
								JOINT mixamorig:LeftHandRing1
								{
									OFFSET 9.104523 -0.042999 -1.865074
									CHANNELS 6 Xposition Yposition Zposition Xrotation Yrotation Zrotation
									JOINT mixamorig:LeftHandRing2
									{
										OFFSET 3.150009 -0.000031 0.000043
										CHANNELS 6 Xposition Yposition Zposition Xrotation Yrotation Zrotation
										JOINT mixamorig:LeftHandRing3
										{
											OFFSET 2.949982 -0.000015 0.000040
											CHANNELS 6 Xposition Yposition Zposition Xrotation Yrotation Zrotation
											JOINT mixamorig:LeftHandRing4
											{
												OFFSET 2.644348 0.000000 0.000057
												CHANNELS 6 Xposition Yposition Zposition Xrotation Yrotation Zrotation
												End Site
												{
													OFFSET 264.434631 0.000000 0.012105
												}
											}
										}
									}
								}
								JOINT mixamorig:LeftHandPinky1
								{
									OFFSET 8.077789 -0.486847 -3.806259
									CHANNELS 6 Xposition Yposition Zposition Xrotation Yrotation Zrotation
									JOINT mixamorig:LeftHandPinky2
									{
										OFFSET 3.599953 0.000031 0.014727
										CHANNELS 6 Xposition Yposition Zposition Xrotation Yrotation Zrotation
										JOINT mixamorig:LeftHandPinky3
										{
											OFFSET 2.100021 0.000015 0.007705
											CHANNELS 6 Xposition Yposition Zposition Xrotation Yrotation Zrotation
											JOINT mixamorig:LeftHandPinky4
											{
												OFFSET 2.125504 0.000031 0.007517
												CHANNELS 6 Xposition Yposition Zposition Xrotation Yrotation Zrotation
												End Site
												{
													OFFSET 212.550781 0.000000 0.625752
												}
											}
										}
									}
								}
							}
						}
					}
				}
			}
		}
	}
	JOINT mixamorig:RightUpLeg
	{
		OFFSET -8.207787 -6.751648 -1.599560
		CHANNELS 6 Xposition Yposition Zposition Xrotation Yrotation Zrotation
		JOINT mixamorig:RightLeg
		{
			OFFSET -0.000002 -44.370117 0.345942
			CHANNELS 6 Xposition Yposition Zposition Xrotation Yrotation Zrotation
			JOINT mixamorig:RightFoot
			{
				OFFSET 0.000003 -44.423679 -3.043532
				CHANNELS 6 Xposition Yposition Zposition Xrotation Yrotation Zrotation
				JOINT mixamorig:RightToeBase
				{
					OFFSET -0.000002 -8.728671 10.710558
					CHANNELS 6 Xposition Yposition Zposition Xrotation Yrotation Zrotation
					JOINT mixamorig:RightToe_End
					{
						OFFSET -0.000001 -0.000679 9.278119
						CHANNELS 6 Xposition Yposition Zposition Xrotation Yrotation Zrotation
						End Site
						{
							OFFSET 0.000000 -0.067690 927.812134
						}
					}
				}
			}
		}
	}
	JOINT mixamorig:LeftUpLeg
	{
		OFFSET 8.207793 -6.751686 -1.599556
		CHANNELS 6 Xposition Yposition Zposition Xrotation Yrotation Zrotation
		JOINT mixamorig:LeftLeg
		{
			OFFSET -0.000004 -44.370014 0.346954
			CHANNELS 6 Xposition Yposition Zposition Xrotation Yrotation Zrotation
			JOINT mixamorig:LeftFoot
			{
				OFFSET -0.000001 -44.423672 -3.044401
				CHANNELS 6 Xposition Yposition Zposition Xrotation Yrotation Zrotation
				JOINT mixamorig:LeftToeBase
				{
					OFFSET -0.000002 -8.728669 10.710558
					CHANNELS 6 Xposition Yposition Zposition Xrotation Yrotation Zrotation
					JOINT mixamorig:LeftToe_End
					{
						OFFSET -0.000003 -0.000679 9.278133
						CHANNELS 6 Xposition Yposition Zposition Xrotation Yrotation Zrotation
						End Site
						{
							OFFSET 0.000000 -0.068021 927.813477
						}
					}
				}
			}
		}
	}
}
MOTION
Frames: 3
Frame Time: 0.033333
0.000006 104.270477 1.554256 0.000010 0.000003 -0.000113 -0.000005 10.181587 0.131522 0.000001 -0.000003 0.000084 -0.000000 9.893967 -1.470711 0.000001 0.000000 -0.000000 -0.000000 9.220802 -1.370642 0.000000 -0.000000 -0.000000 0.000001 16.740433 -2.049030 0.000000 -0.000000 -0.000000 0.000000 9.617859 1.685014 0.000000 0.000000 0.000000 0.000002 22.037384 7.501101 0.000000 -0.000000 0.000000 -4.569968 11.014880 -2.160881 0.000008 0.000001 -0.000038 -10.592764 -0.524849 -2.231730 84.290927 67.162200 -61.999820 -27.841505 -0.000017 0.000570 61.586170 106.508870 -77.194484 -28.328829 0.000021 0.000024 -0.000323 -0.000043 0.000007 -2.464830 -1.574116 2.681989 132.091173 -185.488977 166.965969 -3.215087 -1.873020 1.924446 115.166839 195.756418 160.297969 -2.654706 -1.528285 1.512831 280.625890 -25.824325 -28.655072 -2.018831 -1.152011 1.108062 -0.000007 0.000000 0.000004 -9.108294 -0.517871 2.260381 226.321009 9.983426 -336.857143 -3.700001 0.000031 0.001779 224.132057 12.433899 30.054748 -2.850016 0.000047 0.000028 222.343968 9.455792 24.105956 -2.772164 0.000000 -0.000021 -0.000002 -0.000000 0.000000 -9.532518 -0.000076 0.000516 47.672712 174.972631 -168.424897 -3.700008 0.000001 0.004252 227.423006 7.055545 15.832276 -2.950006 -0.000005 -0.001513 44.438430 172.392568 -161.522649 -2.946633 0.000000 -0.000158 -0.000000 -0.000001 0.000000 -9.103621 -0.043077 -1.864585 226.260917 5.569029 -347.079806 -3.379273 -0.000019 -0.000510 228.708502 6.633899 14.619964 -2.889724 -0.000023 0.000927 229.262594 6.774797 14.785614 -2.638810 -0.000015 0.000945 -0.000000 0.000000 0.000000 -8.076673 -0.486723 -3.805750 223.971506 6.300873 15.278402 -3.599986 -0.000110 -0.003236 226.531721 2.881373 6.015475 -2.099987 -0.000128 -0.005238 -130.766786 1.599332 3.065714 -2.115763 -0.000040 -0.003676 -0.000001 -0.000000 -0.000002 4.570446 11.014691 -2.160851 -0.000018 0.000010 -0.000021 10.592525 -0.524534 -2.232395 69.723165 -65.104468 47.948116 27.841749 -0.000063 -0.000111 228.244227 -76.031398 239.609538 28.328831 -0.000014 0.000019 0.000021 -0.000088 -0.000000 2.466170 -1.576125 2.681910 120.724973 175.273514 -163.719061 3.217854 -1.871950 1.916539 102.108637 -200.379869 206.022971 2.656075 -1.528727 1.514620 274.343209 23.668298 31.028241 2.020887 -1.154072 1.115159 0.000001 0.000000 0.000001 9.109201 -0.517709 2.260032 -150.573119 -10.450403 -38.380957 3.699845 0.000312 -0.000162 27.982621 -167.845779 133.701841 2.849877 0.000342 0.000528 388.159377 -169.287796 139.009267 2.774882 -0.000030 -0.000026 0.000001 -0.000001 -0.000001 9.533322 0.000373 0.000221 -146.434816 -8.639973 -28.108108 3.699901 0.000346 -0.000043 213.824208 -10.047636 -32.246573 2.949905 0.000329 0.000110 214.691355 -9.931497 -31.095874 2.952865 -0.000015 0.000049 -0.000001 -0.000001 0.000000 9.104454 -0.042677 -1.864892 -143.055006 -7.013818 -20.794349 3.149911 0.000408 0.000242 216.196251 -9.054870 -27.242583 2.949892 0.000379 0.000243 -142.856480 -9.335786 -27.321085 2.644318 0.000030 0.000080 -0.000001 -0.000000 -0.000000 8.077694 -0.486536 -3.806067 -143.229272 -8.292644 -25.611620 3.599873 0.000413 0.014906 212.660358 -5.789254 -20.701398 2.099951 0.000397 0.007881 32.737124 183.215071 167.876310 2.125503 0.000000 0.007489 0.000001 -0.000000 0.000000 -8.207786 -6.751667 -1.599560 -0.077001 -0.000003 0.000080 -0.000002 -44.370110 0.345938 0.153719 -0.000000 -0.000000 0.000000 -44.423679 -3.043532 -0.076700 0.000000 -0.000002 -0.000006 -8.728667 10.710559 -0.000009 -0.000000 -0.000000 -0.000001 -0.000679 9.278123 0.000000 -0.000000 -0.000000 8.207792 -6.751710 -1.599556 -0.074518 -0.000003 0.000081 -0.000002 -44.370014 0.346960 0.148822 0.000002 0.000000 -0.000001 -44.423664 -3.044403 -0.074314 0.000000 -0.000002 -0.000004 -8.728671 10.710558 0.000007 -0.000000 -0.000000 0.000000 -0.000680 9.278137 -0.000000 0.000000 -0.000001 
0.000006 104.270477 1.554256 0.000010 0.000003 -0.000113 -0.000005 10.181587 0.131522 0.000001 -0.000003 0.000084 -0.000000 9.893967 -1.470711 0.000001 0.000000 -0.000000 -0.000000 9.220802 -1.370642 0.000000 -0.000000 -0.000000 0.000001 16.740433 -2.049030 0.000000 -0.000000 -0.000000 0.000000 9.617859 1.685014 0.000000 0.000000 0.000000 0.000002 22.037384 7.501101 0.000000 -0.000000 0.000000 -4.569968 11.014880 -2.160881 0.000008 0.000001 -0.000038 -10.592763 -0.524852 -2.231734 84.627826 67.656685 -62.774322 -27.841497 0.000020 0.000569 61.754978 107.251462 -78.139946 -28.328838 0.000006 0.000025 -0.000321 -0.000044 0.000008 -2.464839 -1.574122 2.681987 131.031701 -185.888147 166.743414 -3.215115 -1.873016 1.924440 114.329847 194.442959 160.165573 -2.654726 -1.528292 1.512822 279.149667 -24.181708 -28.932091 -2.018826 -1.152018 1.108061 -0.000000 0.000002 0.000002 -9.108287 -0.517856 2.260389 227.034709 12.500401 -331.691144 -3.700003 0.000039 0.001767 225.205202 14.586718 34.152599 -2.850027 0.000042 0.000033 224.483811 11.314215 27.231268 -2.772178 -0.000015 -0.000030 0.000001 -0.000000 -0.000000 -9.532515 -0.000078 0.000513 47.922591 171.790268 -161.452217 -3.700013 -0.000042 0.004258 227.442977 9.147146 20.498243 -2.949993 -0.000017 -0.001507 45.597865 171.467760 -159.884347 -2.946633 0.000000 -0.000157 0.000002 0.000000 0.000000 -9.103617 -0.043068 -1.864582 226.389516 8.454221 -340.490613 -3.379283 -0.000028 -0.000509 228.519456 7.590370 16.773507 -2.889725 -0.000031 0.000931 228.913763 6.472367 14.248003 -2.638817 -0.000014 0.000950 -0.000000 0.000000 0.000000 -8.076677 -0.486731 -3.805751 223.392552 9.203390 22.649256 -3.599992 -0.000115 -0.003222 225.893084 3.868303 8.451207 -2.099972 -0.000119 -0.005215 -132.451206 1.565606 3.112098 -2.115768 -0.000039 -0.003684 0.000001 -0.000001 -0.000003 4.570446 11.014691 -2.160851 -0.000018 0.000010 -0.000021 10.592527 -0.524540 -2.232396 69.775088 -65.027376 47.926088 27.841755 -0.000067 -0.000102 229.198472 -75.521791 241.170483 28.328833 -0.000013 0.000015 0.000021 -0.000089 -0.000000 2.466187 -1.576110 2.681892 121.083121 178.002188 -164.044710 3.217854 -1.871940 1.916581 106.125997 -196.179753 203.359771 2.656090 -1.528722 1.514606 277.284479 19.680365 28.417557 2.020891 -1.154065 1.115165 0.000001 0.000004 0.000002 9.109180 -0.517695 2.260038 -149.736748 -12.922972 -45.433073 3.699850 0.000311 -0.000149 31.069885 -166.433118 133.644809 2.849876 0.000356 0.000544 392.102664 -168.534549 141.532052 2.774886 -0.000031 -0.000028 -0.000000 0.000001 0.000000 9.533306 0.000367 0.000218 -145.819949 -11.167369 -35.265862 3.699875 0.000338 -0.000038 215.450954 -11.613045 -35.293223 2.949902 0.000324 0.000116 216.527078 -10.586524 -31.368108 2.952866 -0.000016 0.000061 0.000000 0.000000 -0.000000 9.104440 -0.042683 -1.864899 -142.581019 -9.152808 -26.598903 3.149928 0.000382 0.000240 217.026297 -7.977677 -23.530285 2.949924 0.000358 0.000242 -140.736922 -7.220768 -20.065494 2.644319 0.000031 0.000049 -0.000000 -0.000000 -0.000000 8.077695 -0.486532 -3.806078 -141.027943 -8.907621 -25.763436 3.599911 0.000396 0.014911 216.645910 -4.118543 -13.487142 2.099979 0.000381 0.007880 37.165737 181.612162 174.073218 2.125503 -0.000015 0.007514 0.000000 -0.000001 0.000000 -8.207786 -6.751667 -1.599560 -0.077001 -0.000003 0.000080 -0.000002 -44.370110 0.345938 0.153719 -0.000000 -0.000000 0.000000 -44.423679 -3.043532 -0.076700 0.000000 -0.000002 -0.000006 -8.728667 10.710559 -0.000009 -0.000000 -0.000000 -0.000001 -0.000679 9.278123 0.000000 -0.000000 -0.000000 8.207792 -6.751710 -1.599556 -0.074518 -0.000003 0.000081 -0.000002 -44.370014 0.346960 0.148822 0.000002 0.000000 -0.000001 -44.423664 -3.044403 -0.074314 0.000000 -0.000002 -0.000004 -8.728671 10.710558 0.000007 -0.000000 -0.000000 0.000000 -0.000680 9.278137 -0.000000 0.000000 -0.000001 
0.000006 104.270477 1.554256 0.000010 0.000003 -0.000113 -0.000005 10.181587 0.131522 0.000001 -0.000003 0.000084 -0.000000 9.893967 -1.470711 0.000001 0.000000 -0.000000 -0.000000 9.220802 -1.370642 0.000000 -0.000000 -0.000000 0.000001 16.740433 -2.049030 0.000000 -0.000000 -0.000000 0.000000 9.617859 1.685014 0.000000 0.000000 0.000000 0.000002 22.037384 7.501101 0.000000 -0.000000 0.000000 -4.569968 11.014880 -2.160881 0.000008 0.000001 -0.000038 -10.592762 -0.524843 -2.231731 84.781171 67.619187 -62.875245 -27.841511 0.000007 0.000582 62.306024 107.915794 -79.435551 -28.328835 0.000035 0.000004 -0.000324 -0.000045 0.000007 -2.464834 -1.574122 2.681994 131.389508 -184.374495 166.824352 -3.215099 -1.873014 1.924426 114.717084 193.528042 160.446731 -2.654743 -1.528256 1.512809 282.746746 -19.728487 -26.070327 -2.018826 -1.152010 1.108053 -0.000000 -0.000001 0.000002 -9.108297 -0.517876 2.260396 230.585383 14.020030 -330.778903 -3.699996 0.000034 0.001768 227.477005 16.973785 37.463803 -2.850019 0.000046 0.000036 226.728430 13.236701 30.067008 -2.772171 0.000001 -0.000010 0.000002 -0.000000 -0.000000 -9.532505 -0.000080 0.000520 49.452349 170.407373 -159.160879 -3.699989 -0.000034 0.004261 231.141743 11.362686 23.372631 -2.950016 -0.000059 -0.001515 52.187997 170.040906 -159.834404 -2.946625 -0.000000 -0.000145 0.000000 0.000000 0.000000 -9.103614 -0.043061 -1.864575 228.018175 10.277077 -337.229799 -3.379292 -0.000059 -0.000508 231.568657 9.341449 19.222227 -2.889727 -0.000029 0.000906 233.843602 7.237353 14.264534 -2.638812 0.000015 0.000946 -0.000001 0.000001 0.000001 -8.076674 -0.486701 -3.805714 221.366991 10.351645 26.764153 -3.600003 -0.000068 -0.003208 223.962490 4.484433 10.394931 -2.099999 -0.000092 -0.005217 -133.625739 1.608878 3.302314 -2.115772 -0.000042 -0.003685 -0.000000 -0.000000 -0.000002 4.570446 11.014691 -2.160851 -0.000018 0.000010 -0.000021 10.592529 -0.524540 -2.232395 69.709560 -65.031331 47.877492 27.841743 -0.000080 -0.000115 232.143431 -74.702332 245.326899 28.328831 -0.000013 0.000032 0.000020 -0.000088 0.000000 2.466184 -1.576133 2.681890 126.999281 185.885278 -165.920649 3.217840 -1.871941 1.916580 110.218223 -192.720221 201.087927 2.656075 -1.528736 1.514630 283.380068 15.414762 24.634127 2.020906 -1.154052 1.115156 -0.000001 -0.000000 0.000003 9.109195 -0.517716 2.260057 -142.519683 -15.241543 -43.032466 3.699855 0.000279 -0.000120 45.152342 -163.431633 141.382566 2.849909 0.000301 0.000585 411.929228 -166.073645 151.842536 2.774884 -0.000030 -0.000043 0.000000 0.000001 0.000001 9.533322 0.000360 0.000221 -138.735513 -12.908116 -33.434193 3.699883 0.000333 -0.000022 225.576805 -13.511296 -31.489447 2.949923 0.000299 0.000135 227.891912 -11.851468 -26.313574 2.952868 -0.000016 0.000071 0.000001 -0.000001 -0.000001 9.104444 -0.042720 -1.864883 -135.707225 -10.769324 -26.081308 3.149926 0.000343 0.000251 224.391918 -7.815149 -19.010722 2.949927 0.000325 0.000258 -133.407187 -5.949559 -13.765843 2.644317 0.000030 0.000037 -0.000001 0.000001 0.000000 8.077710 -0.486567 -3.806057 -132.380076 -9.093345 -21.227700 3.599931 0.000356 0.014951 225.252508 -3.874535 -10.180211 2.099986 0.000339 0.007915 44.415679 180.816090 177.037957 2.125508 0.000000 0.007499 -0.000001 -0.000000 -0.000002 -8.207786 -6.751667 -1.599560 -0.077001 -0.000003 0.000080 -0.000002 -44.370110 0.345938 0.153719 -0.000000 -0.000000 0.000000 -44.423679 -3.043532 -0.076700 0.000000 -0.000002 -0.000006 -8.728667 10.710559 -0.000009 -0.000000 -0.000000 -0.000001 -0.000679 9.278123 0.000000 -0.000000 -0.000000 8.207792 -6.751710 -1.599556 -0.074518 -0.000003 0.000081 -0.000002 -44.370014 0.346960 0.148822 0.000002 0.000000 -0.000001 -44.423664 -3.044403 -0.074314 0.000000 -0.000002 -0.000004 -8.728671 10.710558 0.000007 -0.000000 -0.000000 0.000000 -0.000680 9.278137 -0.000000 0.000000 -0.000001 
